{
  "accessors": [
    {
      "bufferView": 0,
      "byteOffset": 0,
      "componentType": 5123,
      "count": 885,
      "type": "SCALAR",
      "max": [884],
      "min": [0]
    },
    {
      "bufferView": 1,
      "byteOffset": 0,
      "componentType": 5126,
      "count": 885,
      "type": "VEC3",
      "max": [2.798316240310669, 2.730414867401123, 4.626741409301758],
      "min": [-2.79825758934021, -2.7735955715179443, 0.00016188621520996094],
      "name": "POSITION"
    },
    {
      "bufferView": 1,
      "byteOffset": 12,
      "componentType": 5126,
      "count": 885,
      "type": "VEC3",
      "max": [1.0000044107437134, 1.0000044107437134, 1.0000044107437134],
      "min": [-1.0000044107437134, -1.0000044107437134, -1.0000044107437134],
      "name": "NORMAL"
    },
    {
      "bufferView": 0,
      "byteOffset": 1772,
      "componentType": 5123,
      "count": 1518,
      "type": "SCALAR",
      "max": [1517],
      "min": [0]
    },
    {
      "bufferView": 2,
      "byteOffset": 0,
      "componentType": 5126,
      "count": 1518,
      "type": "VEC3",
      "max": [2.826835870742798, 2.785078525543213, 4.622565269470215],
      "min": [-2.826777219772339, -2.783639907836914, 0.00016188621520996094],
      "name": "POSITION"
    },
    {
      "bufferView": 2,
      "byteOffset": 12,
      "componentType": 5126,
      "count": 1518,
      "type": "VEC3",
      "max": [1.0000044107437134, 1.0000044107437134, 1.0000044107437134],
      "min": [-1.0000044107437134, -1.0000044107437134, -1.0000044107437134],
      "name": "NORMAL"
    },
    {
      "bufferView": 0,
      "byteOffset": 4808,
      "componentType": 5123,
      "count": 1854,
      "type": "SCALAR",
      "max": [1853],
      "min": [0]
    },
    {
      "bufferView": 3,
      "byteOffset": 0,
      "componentType": 5126,
      "count": 1854,
      "type": "VEC3",
      "max": [2.7495386600494385, 2.648888111114502, 4.439340591430664],
      "min": [-2.7660584449768066, -2.647449493408203, 0.17163538932800293],
      "name": "POSITION"
    },
    {
      "bufferView": 3,
      "byteOffset": 12,
      "componentType": 5126,
      "count": 1854,
      "type": "VEC3",
      "max": [1.0000044107437134, 1.0000044107437134, 1.0000044107437134],
      "min": [-1.0000044107437134, -1.0000044107437134, -1.0000044107437134],
      "name": "NORMAL"
    },
    {
      "bufferView": 0,
      "byteOffset": 8516,
      "componentType": 5123,
      "count": 444,
      "type": "SCALAR",
      "max": [443],
      "min": [0]
    },
    {
      "bufferView": 4,
      "byteOffset": 0,
      "componentType": 5126,
      "count": 444,
      "type": "VEC3",
      "max": [2.9877285957336426, 3.112062931060791, 4.961273193359375],
      "min": [-3.090989589691162, -3.161822557449341, 2.1372108459472656],
      "name": "POSITION"
    },
    {
      "bufferView": 4,
      "byteOffset": 12,
      "componentType": 5126,
      "count": 444,
      "type": "VEC3",
      "max": [1.000003695487976, 1.0000044107437134, 0.903131902217865],
      "min": [-0.9999984502792358, -1.0000044107437134, -0.9237362742424011],
      "name": "NORMAL"
    },
    {
      "bufferView": 0,
      "byteOffset": 9404,
      "componentType": 5123,
      "count": 72,
      "type": "SCALAR",
      "max": [71],
      "min": [0]
    },
    {
      "bufferView": 5,
      "byteOffset": 0,
      "componentType": 5126,
      "count": 72,
      "type": "VEC3",
      "max": [0.6015985012054443, 0.009908274747431278, 0.7015305757522583],
      "min": [-0.6015985012054443, 0.009908274747431278, -0.7015305757522583],
      "name": "POSITION"
    },
    {
      "bufferView": 5,
      "byteOffset": 12,
      "componentType": 5126,
      "count": 72,
      "type": "VEC3",
      "max": [0, -1.0000042915344238, 0],
      "min": [0, -1.0000044107437134, 0],
      "name": "NORMAL"
    },
    {
      "bufferView": 0,
      "byteOffset": 9548,
      "componentType": 5123,
      "count": 528,
      "type": "SCALAR",
      "max": [527],
      "min": [0]
    },
    {
      "bufferView": 6,
      "byteOffset": 0,
      "componentType": 5126,
      "count": 528,
      "type": "VEC3",
      "max": [0.7265592813491821, 0.08412601798772812, 0.8472487330436707],
      "min": [-0.7265592813491821, -0.08412601798772812, -0.8472487330436707],
      "name": "POSITION"
    },
    {
      "bufferView": 6,
      "byteOffset": 12,
      "componentType": 5126,
      "count": 528,
      "type": "VEC3",
      "max": [1.0000044107437134, 1.0000044107437134, 1.0000044107437134],
      "min": [-1.0000044107437134, -1.0000044107437134, -1.0000044107437134],
      "name": "NORMAL"
    },
    {
      "bufferView": 0,
      "byteOffset": 10604,
      "componentType": 5123,
      "count": 96,
      "type": "SCALAR",
      "max": [95],
      "min": [0]
    },
    {
      "bufferView": 7,
      "byteOffset": 0,
      "componentType": 5126,
      "count": 96,
      "type": "VEC3",
      "max": [0.618699848651886, 0.02522580698132515, 0.7274508476257324],
      "min": [-0.6068768501281738, -0.02847595512866974, -0.8061164021492004],
      "name": "POSITION"
    },
    {
      "bufferView": 7,
      "byteOffset": 12,
      "componentType": 5126,
      "count": 96,
      "type": "VEC3",
      "max": [1.0000044107437134, 1.0000044107437134, 0],
      "min": [-1.0000044107437134, -1.0000044107437134, 0],
      "name": "NORMAL"
    },
    {
      "bufferView": 0,
      "byteOffset": 10796,
      "componentType": 5123,
      "count": 474,
      "type": "SCALAR",
      "max": [473],
      "min": [0]
    },
    {
      "bufferView": 8,
      "byteOffset": 0,
      "componentType": 5126,
      "count": 474,
      "type": "VEC3",
      "max": [0.6970855593681335, 0.06969932466745377, 0.7153578996658325],
      "min": [-0.056296128779649734, -0.08378184586763382, -0.7153578996658325],
      "name": "POSITION"
    },
    {
      "bufferView": 8,
      "byteOffset": 12,
      "componentType": 5126,
      "count": 474,
      "type": "VEC3",
      "max": [0.9997403025627136, 0.9993064403533936, 1.0000044107437134],
      "min": [-0.9997403025627136, -0.9993064403533936, -1.0000044107437134],
      "name": "NORMAL"
    },
    {
      "bufferView": 0,
      "byteOffset": 11744,
      "componentType": 5123,
      "count": 90,
      "type": "SCALAR",
      "max": [89],
      "min": [0]
    },
    {
      "bufferView": 9,
      "byteOffset": 0,
      "componentType": 5126,
      "count": 90,
      "type": "VEC3",
      "max": [0.5832144021987915, -0.0060597192496061325, 0.6133544445037842],
      "min": [0.057168103754520416, -0.02572399377822876, -0.6133544445037842],
      "name": "POSITION"
    },
    {
      "bufferView": 9,
      "byteOffset": 12,
      "componentType": 5126,
      "count": 90,
      "type": "VEC3",
      "max": [-0.03735530376434326, -0.9993063807487488, 3.312383611842051e-8],
      "min": [
        -0.037355367094278336, -0.9993064403533936, -8.280963470497227e-9
      ],
      "name": "NORMAL"
    },
    {
      "bufferView": 0,
      "byteOffset": 11924,
      "componentType": 5123,
      "count": 474,
      "type": "SCALAR",
      "max": [473],
      "min": [0]
    },
    {
      "bufferView": 10,
      "byteOffset": 0,
      "componentType": 5126,
      "count": 474,
      "type": "VEC3",
      "max": [0.05601860582828522, 0.07348182052373886, 0.7153578996658325],
      "min": [-0.6841247081756592, -0.09253771603107452, -0.7153578996658325],
      "name": "POSITION"
    },
    {
      "bufferView": 10,
      "byteOffset": 12,
      "componentType": 5126,
      "count": 474,
      "type": "VEC3",
      "max": [0.999167799949646, 0.9984776973724365, 1.0000044107437134],
      "min": [-0.9991677403450012, -0.9984776973724365, -1.0000044107437134],
      "name": "NORMAL"
    },
    {
      "bufferView": 0,
      "byteOffset": 12872,
      "componentType": 5123,
      "count": 90,
      "type": "SCALAR",
      "max": [89],
      "min": [0]
    },
    {
      "bufferView": 11,
      "byteOffset": 0,
      "componentType": 5126,
      "count": 90,
      "type": "VEC3",
      "max": [-0.05609515681862831, -0.004123160149902105, 0.6133544445037842],
      "min": [-0.5712867379188538, -0.03262420371174812, -0.6133544445037842],
      "name": "POSITION"
    },
    {
      "bufferView": 11,
      "byteOffset": 12,
      "componentType": 5126,
      "count": 90,
      "type": "VEC3",
      "max": [0.0552370660007, -0.9984776377677917, 1.6896837706781298e-8],
      "min": [0.05523701012134552, -0.9984776973724365, -1.6896843035851816e-8],
      "name": "NORMAL"
    }
  ],
  "asset": { "generator": "Aspose.3D 22.7", "version": "2.0" },
  "buffers": [
    {
      "uri": "data:application/octet-stream;base64,",
      "byteLength": 169700
    }
  ],
  "bufferViews": [
    { "buffer": 0, "byteOffset": 0, "byteLength": 13052, "target": 34963 },
    {
      "buffer": 0,
      "byteOffset": 13056,
      "byteLength": 21240,
      "byteStride": 24,
      "target": 34962
    },
    {
      "buffer": 0,
      "byteOffset": 34300,
      "byteLength": 36432,
      "byteStride": 24,
      "target": 34962
    },
    {
      "buffer": 0,
      "byteOffset": 70736,
      "byteLength": 44496,
      "byteStride": 24,
      "target": 34962
    },
    {
      "buffer": 0,
      "byteOffset": 115236,
      "byteLength": 10656,
      "byteStride": 24,
      "target": 34962
    },
    {
      "buffer": 0,
      "byteOffset": 125896,
      "byteLength": 1728,
      "byteStride": 24,
      "target": 34962
    },
    {
      "buffer": 0,
      "byteOffset": 127628,
      "byteLength": 12672,
      "byteStride": 24,
      "target": 34962
    },
    {
      "buffer": 0,
      "byteOffset": 140304,
      "byteLength": 2304,
      "byteStride": 24,
      "target": 34962
    },
    {
      "buffer": 0,
      "byteOffset": 142612,
      "byteLength": 11376,
      "byteStride": 24,
      "target": 34962
    },
    {
      "buffer": 0,
      "byteOffset": 153992,
      "byteLength": 2160,
      "byteStride": 24,
      "target": 34962
    },
    {
      "buffer": 0,
      "byteOffset": 156156,
      "byteLength": 11376,
      "byteStride": 24,
      "target": 34962
    },
    {
      "buffer": 0,
      "byteOffset": 167536,
      "byteLength": 2160,
      "byteStride": 24,
      "target": 34962
    }
  ],
  "materials": [
    {
      "name": "DarkRed",
      "pbrMetallicRoughness": {
        "baseColorFactor": [
          0.2529407739639282, 0.05315002426505089, 0.04008389264345169, 1
        ],
        "metallicFactor": 0,
        "roughnessFactor": 0
      },
      "emissiveFactor": [
        0.2529407739639282, 0.05315002426505089, 0.04008389264345169
      ],
      "alphaMode": "OPAQUE",
      "doubleSided": false
    },
    {
      "name": "White",
      "pbrMetallicRoughness": {
        "baseColorFactor": [
          0.800000011920929, 0.800000011920929, 0.800000011920929, 1
        ],
        "metallicFactor": 0,
        "roughnessFactor": 0
      },
      "emissiveFactor": [
        0.800000011920929, 0.800000011920929, 0.800000011920929
      ],
      "alphaMode": "OPAQUE",
      "doubleSided": false
    },
    {
      "name": "LightRed",
      "pbrMetallicRoughness": {
        "baseColorFactor": [
          0.3423793613910675, 0.07004915922880173, 0.052458349615335464, 1
        ],
        "metallicFactor": 0,
        "roughnessFactor": 0
      },
      "emissiveFactor": [
        0.3423793613910675, 0.07004915922880173, 0.052458349615335464
      ],
      "alphaMode": "OPAQUE",
      "doubleSided": false
    },
    {
      "name": "RoofBlack",
      "pbrMetallicRoughness": {
        "baseColorFactor": [
          0.09850253909826279, 0.09850253909826279, 0.09850253909826279, 1
        ],
        "metallicFactor": 0,
        "roughnessFactor": 0
      },
      "emissiveFactor": [
        0.09850253909826279, 0.09850253909826279, 0.09850253909826279
      ],
      "alphaMode": "OPAQUE",
      "doubleSided": false
    },
    {
      "name": "DarkRed",
      "pbrMetallicRoughness": {
        "baseColorFactor": [
          0.2529407739639282, 0.05315002426505089, 0.04008389264345169, 1
        ],
        "metallicFactor": 0,
        "roughnessFactor": 0
      },
      "emissiveFactor": [
        0.2529407739639282, 0.05315002426505089, 0.04008389264345169
      ],
      "alphaMode": "OPAQUE",
      "doubleSided": false
    },
    {
      "name": "White",
      "pbrMetallicRoughness": {
        "baseColorFactor": [
          0.800000011920929, 0.800000011920929, 0.800000011920929, 1
        ],
        "metallicFactor": 0,
        "roughnessFactor": 0
      },
      "emissiveFactor": [
        0.800000011920929, 0.800000011920929, 0.800000011920929
      ],
      "alphaMode": "OPAQUE",
      "doubleSided": false
    },
    {
      "name": "LightRed",
      "pbrMetallicRoughness": {
        "baseColorFactor": [
          0.3423793613910675, 0.07004915922880173, 0.052458349615335464, 1
        ],
        "metallicFactor": 0,
        "roughnessFactor": 0
      },
      "emissiveFactor": [
        0.3423793613910675, 0.07004915922880173, 0.052458349615335464
      ],
      "alphaMode": "OPAQUE",
      "doubleSided": false
    },
    {
      "name": "White",
      "pbrMetallicRoughness": {
        "baseColorFactor": [
          0.800000011920929, 0.800000011920929, 0.800000011920929, 1
        ],
        "metallicFactor": 0,
        "roughnessFactor": 0
      },
      "emissiveFactor": [
        0.800000011920929, 0.800000011920929, 0.800000011920929
      ],
      "alphaMode": "OPAQUE",
      "doubleSided": false
    },
    {
      "name": "LightRed",
      "pbrMetallicRoughness": {
        "baseColorFactor": [
          0.3423793613910675, 0.07004915922880173, 0.052458349615335464, 1
        ],
        "metallicFactor": 0,
        "roughnessFactor": 0
      },
      "emissiveFactor": [
        0.3423793613910675, 0.07004915922880173, 0.052458349615335464
      ],
      "alphaMode": "OPAQUE",
      "doubleSided": false
    },
    {
      "name": "White",
      "pbrMetallicRoughness": {
        "baseColorFactor": [
          0.800000011920929, 0.800000011920929, 0.800000011920929, 1
        ],
        "metallicFactor": 0,
        "roughnessFactor": 0
      },
      "emissiveFactor": [
        0.800000011920929, 0.800000011920929, 0.800000011920929
      ],
      "alphaMode": "OPAQUE",
      "doubleSided": false
    },
    {
      "name": "LightRed",
      "pbrMetallicRoughness": {
        "baseColorFactor": [
          0.3423793613910675, 0.07004915922880173, 0.052458349615335464, 1
        ],
        "metallicFactor": 0,
        "roughnessFactor": 0
      },
      "emissiveFactor": [
        0.3423793613910675, 0.07004915922880173, 0.052458349615335464
      ],
      "alphaMode": "OPAQUE",
      "doubleSided": false
    }
  ],
  "meshes": [
    {
      "primitives": [
        {
          "attributes": { "POSITION": 1, "NORMAL": 2 },
          "indices": 0,
          "material": 0,
          "mode": 4
        },
        {
          "attributes": { "POSITION": 4, "NORMAL": 5 },
          "indices": 3,
          "material": 1,
          "mode": 4
        },
        {
          "attributes": { "POSITION": 7, "NORMAL": 8 },
          "indices": 6,
          "material": 2,
          "mode": 4
        },
        {
          "attributes": { "POSITION": 10, "NORMAL": 11 },
          "indices": 9,
          "material": 3,
          "mode": 4
        }
      ],
      "name": "Cube.013"
    },
    {
      "primitives": [
        {
          "attributes": { "POSITION": 13, "NORMAL": 14 },
          "indices": 12,
          "material": 4,
          "mode": 4
        },
        {
          "attributes": { "POSITION": 16, "NORMAL": 17 },
          "indices": 15,
          "material": 5,
          "mode": 4
        },
        {
          "attributes": { "POSITION": 19, "NORMAL": 20 },
          "indices": 18,
          "material": 6,
          "mode": 4
        }
      ],
      "name": "Cube.008"
    },
    {
      "primitives": [
        {
          "attributes": { "POSITION": 22, "NORMAL": 23 },
          "indices": 21,
          "material": 7,
          "mode": 4
        },
        {
          "attributes": { "POSITION": 25, "NORMAL": 26 },
          "indices": 24,
          "material": 8,
          "mode": 4
        }
      ],
      "name": "Cube.023"
    },
    {
      "primitives": [
        {
          "attributes": { "POSITION": 28, "NORMAL": 29 },
          "indices": 27,
          "material": 9,
          "mode": 4
        },
        {
          "attributes": { "POSITION": 31, "NORMAL": 32 },
          "indices": 30,
          "material": 10,
          "mode": 4
        }
      ],
      "name": "Cube.022"
    }
  ],
  "nodes": [
    {
      "matrix": [
        100, 0, 0, 0, 0, -1.6292067955264296e-5, -99.99999999999866, 0, 0,
        99.99999999999866, -1.6292067955264296e-5, 0, 0, 0, 0, 1
      ],
      "mesh": 0,
      "name": "Small_Barn"
    },
    {
      "matrix": [
        100, 0, 0, 0, 0, -1.6292067955264296e-5, -99.99999999999866, 0, 0,
        99.99999999999866, -1.6292067955264296e-5, 0, -39.79047393798828,
        104.88008117675781, 266.565185546875, 1
      ],
      "mesh": 1,
      "name": "Small_Barn_Door"
    },
    {
      "matrix": [
        75.50123596191406, 0, 0, 0, 0, -1.2300712669979483e-5,
        -75.50123596191305, 0, 0, 75.50123596191305, -1.2300712669979483e-5, 0,
        52.930320739746094, 309.62689208984375, 283.9009094238281, 1
      ],
      "mesh": 2,
      "name": "SmallBarn_Window"
    },
    {
      "matrix": [
        75.50123596191406, 0, 0, 0, 0, -1.2300712669979483e-5,
        -75.50123596191305, 0, 0, 75.50123596191305, -1.2300712669979483e-5, 0,
        -51.80371856689453, 309.62689208984375, 284.68621826171875, 1
      ],
      "mesh": 3,
      "name": "SmallBarn_Window2"
    }
  ],
  "scene": 0,
  "scenes": [{ "nodes": [0, 1, 2, 3] }]
}
